<svg xmlns="http://www.w3.org/2000/svg" width="960" height="560" viewBox="0 0 960 560">
<rect width="100%" height="100%" fill="#0b1020"/>
<style>text{font-family:Arial,sans-serif;fill:#e8edf7}.tick{font-size:16px;fill:#aeb9cc}.title{font-size:27px;font-weight:700}.sub{font-size:15px;fill:#9aa8be}.grid{stroke:#26324a;stroke-width:1}.axis{stroke:#9aa8be;stroke-width:2}.line{fill:none;stroke:#34d6c7;stroke-width:4}.dot{fill:#ffb347;stroke:#0b1020;stroke-width:2}</style>
<text class="title" x="90" y="33">5 m measured command-speed curve</text>
<text class="sub" x="90" y="53">v = 5 m / measured elapsed time · real vehicle measurements</text>
<line class="grid" x1="90" y1="480.0" x2="920" y2="480.0"/>
<text class="tick" x="76" y="485.0" text-anchor="end">0.0</text>
<line class="grid" x1="90" y1="391.5" x2="920" y2="391.5"/>
<text class="tick" x="76" y="396.5" text-anchor="end">0.5</text>
<line class="grid" x1="90" y1="302.9" x2="920" y2="302.9"/>
<text class="tick" x="76" y="307.9" text-anchor="end">1.0</text>
<line class="grid" x1="90" y1="214.4" x2="920" y2="214.4"/>
<text class="tick" x="76" y="219.4" text-anchor="end">1.5</text>
<line class="grid" x1="90" y1="125.8" x2="920" y2="125.8"/>
<text class="tick" x="76" y="130.8" text-anchor="end">2.0</text>
<line class="grid" x1="90.0" y1="55" x2="90.0" y2="480"/>
<text class="tick" x="90.0" y="508" text-anchor="middle">4</text>
<line class="grid" x1="129.5" y1="55" x2="129.5" y2="480"/>
<text class="tick" x="129.5" y="508" text-anchor="middle">5</text>
<line class="grid" x1="169.0" y1="55" x2="169.0" y2="480"/>
<text class="tick" x="169.0" y="508" text-anchor="middle">6</text>
<line class="grid" x1="208.6" y1="55" x2="208.6" y2="480"/>
<text class="tick" x="208.6" y="508" text-anchor="middle">7</text>
<line class="grid" x1="248.1" y1="55" x2="248.1" y2="480"/>
<text class="tick" x="248.1" y="508" text-anchor="middle">8</text>
<line class="grid" x1="287.6" y1="55" x2="287.6" y2="480"/>
<text class="tick" x="287.6" y="508" text-anchor="middle">9</text>
<line class="grid" x1="327.1" y1="55" x2="327.1" y2="480"/>
<text class="tick" x="327.1" y="508" text-anchor="middle">10</text>
<line class="grid" x1="406.2" y1="55" x2="406.2" y2="480"/>
<text class="tick" x="406.2" y="508" text-anchor="middle">12</text>
<line class="grid" x1="524.8" y1="55" x2="524.8" y2="480"/>
<text class="tick" x="524.8" y="508" text-anchor="middle">15</text>
<line class="grid" x1="722.4" y1="55" x2="722.4" y2="480"/>
<text class="tick" x="722.4" y="508" text-anchor="middle">20</text>
<line class="grid" x1="920.0" y1="55" x2="920.0" y2="480"/>
<text class="tick" x="920.0" y="508" text-anchor="middle">25</text>
<line class="axis" x1="90" y1="480" x2="920" y2="480"/>
<line class="axis" x1="90" y1="55" x2="90" y2="480"/>
<text class="tick" x="505.0" y="538" text-anchor="middle">speed command</text>
<text class="tick" transform="translate(24 267.5) rotate(-90)" text-anchor="middle">measured speed (m/s)</text>
<path class="line" d="M 90.0 409.4 L 129.5 390.0 L 169.0 372.9 L 208.6 357.0 L 248.1 345.2 L 287.6 305.4 L 327.1 299.3 L 406.2 259.2 L 524.8 212.5 L 722.4 136.8 L 920.0 86.5"/>
<circle class="dot" cx="90.0" cy="409.4" r="6"/>
<circle class="dot" cx="129.5" cy="390.0" r="6"/>
<circle class="dot" cx="169.0" cy="372.9" r="6"/>
<circle class="dot" cx="208.6" cy="357.0" r="6"/>
<circle class="dot" cx="248.1" cy="345.2" r="6"/>
<circle class="dot" cx="287.6" cy="305.4" r="6"/>
<circle class="dot" cx="327.1" cy="299.3" r="6"/>
<circle class="dot" cx="406.2" cy="259.2" r="6"/>
<circle class="dot" cx="524.8" cy="212.5" r="6"/>
<circle class="dot" cx="722.4" cy="136.8" r="6"/>
<circle class="dot" cx="920.0" cy="86.5" r="6"/>
</svg>